<?xml version="1.0" standalone="no"?><!DOCTYPE svg PUBLIC "-//W3C//DTD SVG 1.1//EN" "http://www.w3.org/Graphics/SVG/1.1/DTD/svg11.dtd"><svg t="1715582740358" class="icon" viewBox="0 0 1024 1024" version="1.1" xmlns="http://www.w3.org/2000/svg" p-id="6986" xmlns:xlink="http://www.w3.org/1999/xlink" width="200" height="200"><path d="M863.4112 702.19776c34.98496 49.26976 49.73056 85.93408 36.75136 101.4272-32.78336 39.12192-227.9936-70.6304-435.97312-245.10976-207.98464-174.53568-349.98784-347.76576-317.17888-386.8672 11.40224-13.568 42.7776-8.86272 87.18848 10.07104C141.4656 128.97792 74.99776 107.45856 56.3712 129.64352c-23.30624 27.776 33.70496 117.36576 139.65312 231.36256a342.4256 342.4256 0 0 0-30.0544 140.1856c0 191.12448 154.9312 346.02496 346.02496 346.02496 70.8608 0 136.50432-21.66272 191.31904-58.22976 136.73984 89.94816 240.28672 134.00064 264.30464 105.34912 20.57728-24.47872-21.36576-97.1008-104.20736-192.13824z m-382.21312-177.77152c106.71616 89.53856 209.85344 161.80224 289.60256 205.88032a344.38656 344.38656 0 0 0 87.21408-229.14048c0-191.13984-154.93632-346.04544-346.02496-346.04544-110.85312 0-209.28512 52.33664-272.60416 133.41696 57.3952 68.5312 141.82912 151.99232 241.81248 235.88864z" p-id="6987"></path></svg>